<?xml version="1.0" encoding="UTF-8"?>
<svg version="1.1" xmlns="http://www.w3.org/2000/svg" width="208" height="203">
<path d="M0 0 C4.14921162 2.89479881 7.01816988 5.34961335 8.32421875 10.27734375 C9.07360586 15.63586446 8.97024947 19.36121947 5.6875 23.875 C1.84456357 28.18436143 -1.45005045 30.51525408 -7.2734375 30.875 C-9.31016412 30.875 -11.33937302 30.81287651 -13.375 30.75 C-17.89724252 30.89356325 -20.31879428 31.87814714 -24.3125 33.875 C-22.6728125 34.8340625 -22.6728125 34.8340625 -21 35.8125 C-17.25613484 38.50838668 -15.85929106 41.05475964 -14.69140625 45.4765625 C-13.90827712 50.43368915 -13.91055679 54.66204894 -16.65625 58.99609375 C-18.12594064 60.78637867 -19.52554103 62.40087735 -21.3125 63.875 C-21.9725 63.875 -22.6325 63.875 -23.3125 63.875 C-23.3125 64.535 -23.3125 65.195 -23.3125 65.875 C-21.91690171 66.02306573 -20.52099677 66.1682396 -19.125 66.3125 C-18.2175 66.41304688 -17.31 66.51359375 -16.375 66.6171875 C-13.27458176 66.92010465 -13.27458176 66.92010465 -10 66.8828125 C-1.49706633 67.02059152 -1.49706633 67.02059152 2 69.54296875 C6.29185538 74.3087165 8.76909589 78.30472934 8.5625 84.8125 C7.67635405 90.22104594 5.10695179 93.55941054 1.125 97.25 C-3.74606475 99.55268515 -8.01436881 99.64879561 -13.3125 98.875 C-18.23906087 96.54608031 -20.71653432 93.61935106 -23.3125 88.875 C-24.05595764 86.63671794 -24.72600768 84.40662373 -25.30859375 82.12109375 C-28.68580153 74.56508413 -38.30127046 69.66168856 -45.3125 65.875 C-48.41753548 64.9305901 -51.08552349 64.69989275 -54.3125 64.875 C-60.66715353 65.20945545 -64.11589382 64.57258516 -69.3125 60.875 C-73.12520653 57.36329662 -74.067956 54.17293873 -74.41015625 49.1484375 C-74.19625737 44.16887161 -72.09008364 40.82070984 -69 37.0625 C-64.38439754 33.30561427 -60.68101013 32.79453395 -54.875 32.9375 C-50.03825493 33.00259751 -46.49504161 32.33940211 -42.3125 29.875 C-41.42304688 29.36453125 -40.53359375 28.8540625 -39.6171875 28.328125 C-31.77891574 23.60425989 -27.26245863 19.54993099 -24 10.875 C-22.00358072 5.89015185 -20.11464156 2.72044138 -15.55859375 -0.19921875 C-10.26360431 -2.38167527 -5.31167114 -1.80396378 0 0 Z " fill="#C15B26" transform="translate(192.3125,50.125)"/>
<path d="M0 0 C4.99178524 2.81283136 6.7482642 7.21267468 8.2734375 12.55078125 C10.21908215 19.05732017 14.13861241 21.834994 19.6875 25.5 C20.5228125 26.07234375 21.358125 26.6446875 22.21875 27.234375 C28.15595194 31.08256144 32.55673059 32.74714689 39.71484375 32.40234375 C45.16096815 32.16191983 48.5201505 33.10477363 52.6875 36.5 C56.16564154 40.43579174 57.49139241 44.03861457 57.84765625 49.19140625 C57.56783574 53.22491652 56.11820628 56.30246376 53.6875 59.5 C48.19414909 63.87225889 44.320138 64.60975431 37.55078125 64.33984375 C30.21644441 64.75008633 25.21448332 66.95560532 19.4375 71.25 C18.839375 71.66765625 18.24125 72.0853125 17.625 72.515625 C11.14837777 77.21547476 8.34164733 82.87617304 5.8125 90.328125 C4.47450397 92.91120067 3.36550504 93.49574811 0.6875 94.5 C0.6875 95.16 0.6875 95.82 0.6875 96.5 C-3.58150707 98.63450354 -7.61527971 99.08252929 -12.3125 98.5 C-17.57844344 96.64143173 -20.10645768 93.89685804 -23.3125 89.5 C-24.988694 84.47141801 -24.91892735 80.15969589 -23.125 75.25 C-20.38999064 71.10033063 -16.91388423 68.34055369 -12.3125 66.5 C-9.83966188 66.25686061 -7.35781238 66.09842666 -4.875 66 C-0.21834006 65.8150284 3.45893623 65.52058539 7.6875 63.5 C6.2953125 62.448125 6.2953125 62.448125 4.875 61.375 C1.0991063 58.17039991 -0.95394542 55.17366622 -1.62890625 50.140625 C-1.91674825 44.01237596 -0.88804088 40.466029 2.6875 35.5 C4.9375 33.0625 4.9375 33.0625 6.6875 31.5 C3.12750782 30.67104875 -0.04033514 30.44232122 -3.6875 30.5625 C-9.52116037 30.60170471 -14.05698063 29.93533051 -19.0625 26.75 C-22.87022568 22.94227432 -24.4772747 19.40791594 -24.75 14.0625 C-24.56185473 9.40590451 -23.39591187 6.02129285 -20.3125 2.5 C-14.37119197 -2.70249253 -7.12206882 -2.96532233 0 0 Z " fill="#E6915F" transform="translate(27.3125,52.5)"/>
<path d="M0 0 C3.11794572 2.583068 5.5196286 4.87802788 6.9296875 8.734375 C7.17649386 11.40156647 7.34689433 14.00057759 7.4296875 16.671875 C7.63515777 23.43077676 7.63515777 23.43077676 9.9296875 29.734375 C10.9196875 30.229375 10.9196875 30.229375 11.9296875 30.734375 C12.1771875 29.6515625 12.1771875 29.6515625 12.4296875 28.546875 C14.64365992 24.39567672 17.63848127 22.54081061 21.9296875 20.734375 C28.19175314 19.35140997 32.69306195 21.18270603 38.08203125 24.34765625 C39.9296875 25.734375 39.9296875 25.734375 41.9296875 28.734375 C42.95827118 25.64862397 43.01978597 23.05641595 43.06689453 19.83056641 C43.3438812 7.25322014 43.3438812 7.25322014 48.19921875 2.12109375 C52.44524916 -1.28148141 56.11710356 -2.54583169 61.4921875 -2.203125 C67.14721416 -1.29909013 70.53186996 1.1526341 74.3046875 5.421875 C76.41286003 9.71930362 76.61434756 13.03473309 75.9296875 17.734375 C74.22028406 22.6726516 71.43727244 26.09734656 66.9296875 28.734375 C65.1473475 29.32576304 63.35447515 29.88592715 61.5546875 30.421875 C54.79769168 32.68950811 51.78321689 36.95845 47.9296875 42.734375 C47.41277344 43.43175781 46.89585938 44.12914062 46.36328125 44.84765625 C42.21137851 50.75021883 41.74446015 56.21505535 42.1171875 63.296875 C41.84020447 68.37489714 39.84531475 72.61421463 36.4296875 76.39453125 C32.84912338 79.59279555 28.77107448 80.19967739 24.05078125 80.0390625 C19.47271456 79.38143966 15.71774048 77.69247337 12.57421875 74.25 C9.77400614 69.6807 9.73607732 65.14754004 9.6171875 59.921875 C9.41343155 51.88049273 6.8951217 47.10632704 1.9296875 40.734375 C1.51460937 40.04601563 1.09953125 39.35765625 0.671875 38.6484375 C-2.47731563 33.42914953 -6.46192037 31.76417044 -12.0703125 29.734375 C-16.99028143 27.9339167 -20.12925751 26.25907498 -23.0703125 21.734375 C-24.69173175 16.87011726 -25.02810443 11.54008071 -23.3515625 6.62890625 C-21.29723748 2.74391256 -19.04844741 0.52453571 -15.0703125 -1.265625 C-9.96969656 -2.81798637 -4.6429933 -2.83835817 0 0 Z " fill="#E69160" transform="translate(75.0703125,3.265625)"/>
<path d="M0 0 C4.25945022 4.16039324 6.30827963 7.99799559 7 14 C6.98141786 15.66708386 6.93887896 17.3340368 6.875 19 C6.73123274 28.44550887 13.19920024 35.98692373 19 43 C21.77514643 45.43521886 24.40888851 46.65484237 27.875 47.875 C33.27133593 49.96826895 37.32498749 52.1829335 40.375 57.3125 C41.69261228 62.97823282 41.82281323 67.14612557 39 72.25 C36.09992301 76.38016582 32.9025114 78.73256438 28 80 C22.2972811 80.47113685 17.85263559 79.05283179 13.44140625 75.4296875 C10.31800358 72.33167835 9.04127984 69.69975799 8.93359375 65.265625 C8.97823423 63.19640743 9.03176436 61.12736437 9.09375 59.05859375 C8.95965703 54.68381046 7.69671561 50.99940109 6 47 C5.46375 47.7425 4.9275 48.485 4.375 49.25 C0.66595381 53.54468506 -2.80320596 56.04636166 -8.4375 56.9375 C-14.08822371 57.33704612 -18.12704445 55.58480854 -22.4375 51.9375 C-24 50 -24 50 -24 48 C-24.99 48.495 -24.99 48.495 -26 49 C-27.40845645 53.22536935 -27.31559691 57.51063021 -27.4296875 61.93164062 C-27.69166603 67.76612079 -28.99940947 72.05347949 -33.3125 76.25 C-37.49514103 78.97358021 -40.53992349 80.07684613 -45.5625 79.8125 C-50.14195809 78.73008263 -52.78539069 77.14520307 -56.1875 73.9375 C-58.74628333 69.79050633 -59.90377912 65.88505999 -60 61 C-59.15502218 57.97586884 -58.00807027 55.4261543 -56 53 C-54.515 52.505 -54.515 52.505 -53 52 C-53 51.34 -53 50.68 -53 50 C-52.154375 49.74347656 -51.30875 49.48695313 -50.4375 49.22265625 C-41.9885894 46.37114892 -37.13802569 43.26329995 -32 36 C-31.4121875 35.26007813 -30.824375 34.52015625 -30.21875 33.7578125 C-25.672055 27.38815017 -25.32313614 21.42524248 -25.30078125 13.83203125 C-24.87525556 8.41072344 -23.54734006 4.50766468 -19.5625 0.625 C-13.85873224 -2.99202346 -5.90987531 -3.51397992 0 0 Z " fill="#CF612A" transform="translate(112,119)"/>
<path d="M0 0 C1.64453125 1.37890625 1.64453125 1.37890625 4.08203125 3.81640625 C3.09203125 4.14640625 2.10203125 4.47640625 1.08203125 4.81640625 C0.60765625 4.15640625 0.13328125 3.49640625 -0.35546875 2.81640625 C-4.096785 -0.10364546 -7.33342562 0.28236449 -11.91796875 0.81640625 C-15.11564215 1.59805975 -16.67978273 2.62328245 -19.23046875 4.69140625 C-21.83116445 9.5075094 -21.55282457 14.44966 -20.91796875 19.81640625 C-20.19751659 22.1096709 -20.19751659 22.1096709 -18.91796875 23.81640625 C-17.92796875 24.14640625 -16.93796875 24.47640625 -15.91796875 24.81640625 C-16.24796875 25.47640625 -16.57796875 26.13640625 -16.91796875 26.81640625 C-20.45745366 25.63657795 -21.39555908 24.21375571 -23.1171875 20.9765625 C-24.84716618 16.30983952 -24.82815489 11.42041472 -23.1875 6.7265625 C-21.16448261 2.82090035 -18.8951277 0.60612778 -14.91796875 -1.18359375 C-9.99188499 -2.69616719 -4.48642626 -2.76860928 0 0 Z " fill="#DB9F7D" transform="translate(74.91796875,3.18359375)"/>
<path d="M0 0 C0.66 0.33 1.32 0.66 2 1 C1.525625 1.5775 1.05125 2.155 0.5625 2.75 C-2.99313743 7.8701179 -2.49112633 14.05324201 -1.5 20 C-1.335 20.66 -1.17 21.32 -1 22 C-0.443125 22.103125 0.11375 22.20625 0.6875 22.3125 C3 23 3 23 5.17578125 24.5078125 C8.74228498 26.3921893 11.48405856 26.43800582 15.5 26.5625 C20.15050413 26.71596664 23.77834606 26.97847725 28 29 C28 29.66 28 30.32 28 31 C27.071875 30.67 26.14375 30.34 25.1875 30 C21.87760648 29.03321569 18.94108307 28.92405886 15.5 29 C9.69612655 29.09540614 5.23103162 28.41974739 0.25 25.25 C-3.55772568 21.44227432 -5.1647747 17.90791594 -5.4375 12.5625 C-5.28695537 7.61961793 -3.5600407 3.5600407 0 0 Z " fill="#E1A887" transform="translate(8,54)"/>
<path d="M0 0 C3.85315902 1.07671755 6.89168339 2.47268565 9.28125 5.765625 C11.35166355 9.74960258 12.76147504 14.01417209 14.2734375 18.234375 C15.1858383 20.45160705 16.42552224 22.20059684 18 24 C16.68 24 15.36 24 14 24 C13.71125 23.195625 13.4225 22.39125 13.125 21.5625 C12.26737432 18.8673532 12.26737432 18.8673532 10 18 C9.5859375 15.93359375 9.5859375 15.93359375 9.375 13.4375 C9.30023438 12.61121094 9.22546875 11.78492188 9.1484375 10.93359375 C9.09945312 10.29550781 9.05046875 9.65742187 9 9 C8.01 8.67 7.02 8.34 6 8 C5.3125 5.9375 5.3125 5.9375 5 4 C1.00204108 3.04380267 -2.70803922 2.8960408 -6.8125 2.9375 C-7.97394531 2.94652344 -9.13539062 2.95554688 -10.33203125 2.96484375 C-11.21246094 2.97644531 -12.09289063 2.98804688 -13 3 C-8.71265339 -0.64038214 -5.44501933 -0.7778599 0 0 Z " fill="#DFA17E" transform="translate(23,51)"/>
<path d="M0 0 C5.57608696 2.15217391 5.57608696 2.15217391 7 5 C1.25 3.125 1.25 3.125 -1 2 C-5.11823618 1.60401575 -7.54458065 1.78517955 -11.3125 3.5625 C-14.57452704 6.52108266 -15.04352639 8.77557487 -16 13 C-16.99 13.495 -16.99 13.495 -18 14 C-18.309375 14.825 -18.61875 15.65 -18.9375 16.5 C-19.288125 17.325 -19.63875 18.15 -20 19 C-20.99 19.33 -21.98 19.66 -23 20 C-21.07850892 12.63428421 -19.17735994 6.87475423 -13.375 1.625 C-8.80368261 -0.57600467 -4.98923602 -0.68733397 0 0 Z " fill="#C46438" transform="translate(189,49)"/>
<path d="M0 0 C0.66 0.33 1.32 0.66 2 1 C1.50628906 1.68964844 1.01257813 2.37929688 0.50390625 3.08984375 C-4.61573357 10.59933556 -6.28386281 15.60660658 -5.8125 24.5625 C-6.05399957 28.98999215 -7.54483939 32.32621953 -10 36 C-10.99 36.495 -10.99 36.495 -12 37 C-12 36.01 -12 35.02 -12 34 C-11.34 34 -10.68 34 -10 34 C-9.24225417 27.61328511 -8.70606275 21.2380194 -8.28125 14.8203125 C-8 12 -8 12 -7 9 C-6.01 8.34 -5.02 7.68 -4 7 C-3.835 6.175 -3.67 5.35 -3.5 4.5 C-3.335 3.675 -3.17 2.85 -3 2 C-2.01 1.34 -1.02 0.68 0 0 Z " fill="#D99C78" transform="translate(123,42)"/>
<path d="M0 0 C-0.33 0.99 -0.66 1.98 -1 3 C-1.66 3 -2.32 3 -3 3 C-3.309375 3.969375 -3.61875 4.93875 -3.9375 5.9375 C-5 9 -5 9 -6 10 C-6.15135944 11.7872057 -6.22175778 13.58161876 -6.25 15.375 C-6.27578125 16.35210937 -6.3015625 17.32921875 -6.328125 18.3359375 C-5.95079276 21.39951589 -5.27292886 22.05006629 -3 24 C-3 24.66 -3 25.32 -3 26 C-1.68 26.33 -0.36 26.66 1 27 C1 27.66 1 28.32 1 29 C-3.42326378 27.64844718 -5.40412982 25.80109562 -8 22 C-9.62197607 17.1340718 -10.0101764 11.74047856 -8.2109375 6.859375 C-6.2917909 3.37268117 -4.35684927 0 0 0 Z " fill="#DB9D7E" transform="translate(35,86)"/>
<path d="M0 0 C5.87697843 0.20620977 9.16877002 1.12174512 13.47265625 5.19140625 C15.52894207 7.62634317 16.81738389 10.15402032 18.08984375 13.0625 C19.05167575 15.28027535 19.05167575 15.28027535 21.25 18 C23.58035846 21.99490022 23.31460664 24.43820376 23 29 C22.67 29 22.34 29 22 29 C21.7628125 27.83855469 21.525625 26.67710938 21.28125 25.48046875 C20.11857303 20.86533228 18.13553761 17.24561846 15.5 13.3125 C15.06510254 12.65693115 14.63020508 12.0013623 14.18212891 11.32592773 C10.40581387 5.95933589 6.3407606 2.9561921 0 1 C0 0.67 0 0.34 0 0 Z " fill="#E2A483" transform="translate(63,32)"/>
<path d="M0 0 C4.12568857 3.30055086 5.33001178 6.90982977 6 12 C6.08250247 14.58114886 6.06357198 17.14111918 6.00390625 19.72265625 C5.99956264 22.25497994 6.34769505 24.55385644 7 27 C5.68 26.67 4.36 26.34 3 26 C3.33 21.38 3.66 16.76 4 12 C3.34 12 2.68 12 2 12 C1.67 10.68 1.34 9.36 1 8 C1.66 8 2.32 8 3 8 C3 7.34 3 6.68 3 6 C2.01 5.67 1.02 5.34 0 5 C0 3.35 0 1.7 0 0 Z " fill="#C66C34" transform="translate(113,121)"/>
<path d="M0 0 C0.33 0.99 0.66 1.98 1 3 C0.25234375 3.60328125 -0.4953125 4.2065625 -1.265625 4.828125 C-2.25046875 5.62734375 -3.2353125 6.4265625 -4.25 7.25 C-5.22453125 8.03890625 -6.1990625 8.8278125 -7.203125 9.640625 C-9.60247544 11.66465805 -11.82411437 13.74122349 -14 16 C-14.33 15.67 -14.66 15.34 -15 15 C-17.33297433 14.95907063 -19.66705225 14.95758277 -22 15 C-21.44957031 14.73703125 -20.89914063 14.4740625 -20.33203125 14.203125 C-12.89444778 10.36597976 -6.17473288 5.62586773 0 0 Z " fill="#BD6C3D" transform="translate(165,69)"/>
<path d="M0 0 C0.66 0.33 1.32 0.66 2 1 C1.21625 1.556875 0.4325 2.11375 -0.375 2.6875 C-4.37544976 6.21170574 -4.89463559 8.67240846 -5.3125 13.9375 C-5.2306199 17.8826319 -3.9241873 20.55249775 -2 24 C-2 24.99 -2 25.98 -2 27 C-6.38047116 21.9456102 -8.33076297 19.07814659 -8.21484375 12.05859375 C-7.73028387 7.41562906 -5.73265064 4.64745871 -2.3125 1.625 C-1.1678125 0.820625 -1.1678125 0.820625 0 0 Z " fill="#DAA280" transform="translate(11,121)"/>
<path d="M0 0 C2.74195276 0.54839055 4.91565384 1.40877404 7.5 2.5625 C10.98606276 4.25327924 10.98606276 4.25327924 15 4 C15.66 4.66 16.32 5.32 17 6 C16.60467975 8.45098556 15.78698574 10.63904279 15 13 C14.38125 12.319375 13.7625 11.63875 13.125 10.9375 C9.80633407 7.58035678 5.91718582 5.07577442 2.01171875 2.453125 C1.34785156 1.97359375 0.68398437 1.4940625 0 1 C0 0.67 0 0.34 0 0 Z " fill="#BC612C" transform="translate(151,117)"/>
<path d="M0 0 C0.99 0.33 1.98 0.66 3 1 C-2.55437434 4.29148109 -6.11522999 5.29885545 -12.53125 5.01171875 C-16.89654534 4.99099741 -21.08669905 6.04334953 -25 8 C-25.33 6.68 -25.66 5.36 -26 4 C-19.81312286 3.03154963 -13.68254389 2.67445182 -7.42578125 2.37890625 C-4.28400587 2.03141228 -2.71636838 1.41643588 0 0 Z " fill="#DC9B7D" transform="translate(77,112)"/>
<path d="M0 0 C2.43361386 2.43361386 2.75268999 4.40189986 3.08984375 7.7734375 C2.92889245 11.76223071 1.3705233 14.83930226 -1 18 C-2.93432435 19.67547316 -4.73406117 20.76403336 -7 22 C-7 21.01 -7 20.02 -7 19 C-6.34 19 -5.68 19 -5 19 C-5 18.34 -5 17.68 -5 17 C-4.01 17 -3.02 17 -2 17 C-0.84429296 13.53287889 -0.67164707 10.4585044 -0.4375 6.8125 C-0.35371094 5.54019531 -0.26992187 4.26789063 -0.18359375 2.95703125 C-0.12300781 1.98121094 -0.06242188 1.00539063 0 0 Z " fill="#BD7240" transform="translate(198,126)"/>
<path d="M0 0 C8.40403787 2.34595474 15.8119482 4.59417304 20.4375 12.4375 C21.14779896 15.67330636 21.12946307 18.6986916 21 22 C19.95583075 20.07230291 19.05853208 18.17852285 18.375 16.09375 C16.80384463 11.30886774 15.5149692 8.63373203 11 6 C7.37629797 4.52803077 3.71453786 3.22300021 0 2 C0 1.34 0 0.68 0 0 Z " fill="#B76B39" transform="translate(132,164)"/>
<path d="M0 0 C0.66 1.32 1.32 2.64 2 4 C1.01 4.495 1.01 4.495 0 5 C0.02320312 5.86882813 0.04640625 6.73765625 0.0703125 7.6328125 C0.08835937 8.78523438 0.10640625 9.93765625 0.125 11.125 C0.14820312 12.26195312 0.17140625 13.39890625 0.1953125 14.5703125 C-0.00327891 18.05757767 -0.7475199 20.7553862 -2 24 C-2.66 23.67 -3.32 23.34 -4 23 C-3.505 21.515 -3.505 21.515 -3 20 C-2.77233458 16.3862631 -2.6062574 12.77856997 -2.48242188 9.16015625 C-2.30587623 5.3161247 -2.17748564 3.26622847 0 0 Z " fill="#D59773" transform="translate(121,9)"/>
<path d="M0 0 C0.6290625 0.0721875 1.258125 0.144375 1.90625 0.21875 C6.05727209 0.66886083 10.07395719 1.05304834 14.25 0.875 C18.30507651 1.01016922 20.55434483 1.9326069 24 4 C21 5 21 5 18 4 C16.59335074 3.85507877 15.1818867 3.75371069 13.76953125 3.68359375 C12.56586914 3.62075195 12.56586914 3.62075195 11.33789062 3.55664062 C10.50451172 3.51732422 9.67113281 3.47800781 8.8125 3.4375 C7.96751953 3.39431641 7.12253906 3.35113281 6.25195312 3.30664062 C4.16815567 3.20068482 2.08409897 3.0998498 0 3 C0 2.01 0 1.02 0 0 Z " fill="#DA9E7E" transform="translate(55,84)"/>
<path d="M0 0 C2.50497066 1.77772112 3.81435233 3.28672212 4.59375 6.28125 C5.31028964 11.68786731 5.26409737 15.38524164 2 20 C-0.1875 21.875 -0.1875 21.875 -2 23 C-0.15789474 18.26315789 -0.15789474 18.26315789 1.125 16.125 C3.36578264 10.6830993 1.73766675 5.32160443 0 0 Z " fill="#CB8A52" transform="translate(196,54)"/>
<path d="M0 0 C5.89578845 5.74461439 5.89578845 5.74461439 6.16796875 9.0234375 C6.17441406 9.79945312 6.18085938 10.57546875 6.1875 11.375 C6.20167969 12.14585938 6.21585938 12.91671875 6.23046875 13.7109375 C5.97801607 16.21834888 5.25193467 17.83261902 4 20 C3.67 20 3.34 20 3 20 C3.03480469 19.31035156 3.06960937 18.62070312 3.10546875 17.91015625 C3.2954582 11.31480814 2.52898251 6.09665427 0 0 Z " fill="#DBA27F" transform="translate(145,5)"/>
<path d="M0 0 C2.4375 1.625 2.4375 1.625 3.4375 3.625 C-2.3125 1.75 -2.3125 1.75 -4.5625 0.625 C-11.17738348 -0.18498573 -15.16543902 2.19829462 -20.5625 5.625 C-16.62411029 -2.8847349 -8.02979453 -3.09921894 0 0 Z " fill="#C27F54" transform="translate(192.5625,50.375)"/>
<path d="M0 0 C2.5625 1.5625 2.5625 1.5625 4 3 C0.74330101 3.1973757 -1.20893977 2.9211548 -4.3125 1.75 C-9.31875694 0.73177825 -11.82578353 2.35027998 -16 5 C-16.99 5.66 -17.98 6.32 -19 7 C-17.26109509 2.84934757 -15.28634105 1.54288366 -11.29296875 -0.3046875 C-7.39283651 -1.48735111 -3.88561006 -1.09926886 0 0 Z " fill="#DAA182" transform="translate(141,2)"/>
<path d="M0 0 C3.09083603 2.78175243 5.00388409 4.92498037 6 9 C6 14.3148358 5.48571477 17.8566032 2 22 C2.12568359 20.91332031 2.12568359 20.91332031 2.25390625 19.8046875 C3.09890246 12.35845128 3.09890246 12.35845128 2 5 C1.34 4.34 0.68 3.68 0 3 C0 2.01 0 1.02 0 0 Z " fill="#D89A79" transform="translate(79,89)"/>
<path d="M0 0 C1.32 0 2.64 0 4 0 C4 0.66 4 1.32 4 2 C3.10796875 2.33773437 2.2159375 2.67546875 1.296875 3.0234375 C0.12640625 3.46945313 -1.0440625 3.91546875 -2.25 4.375 C-3.41015625 4.81585938 -4.5703125 5.25671875 -5.765625 5.7109375 C-8.26209781 6.70590855 -10.62904947 7.74410046 -13 9 C-13.33 8.01 -13.66 7.02 -14 6 C-13.07316406 5.65066406 -12.14632812 5.30132812 -11.19140625 4.94140625 C-9.99386719 4.48636719 -8.79632813 4.03132812 -7.5625 3.5625 C-6.36753906 3.11003906 -5.17257813 2.65757812 -3.94140625 2.19140625 C-1.15554277 1.2855174 -1.15554277 1.2855174 0 0 Z " fill="#BD6331" transform="translate(73,163)"/>
<path d="M0 0 C0.66 0.33 1.32 0.66 2 1 C-3.23395587 6.23395587 -8.97488773 7.96521829 -16 10 C-15 7 -15 7 -11.875 5.4296875 C-10.58780531 4.90044836 -9.29586759 4.38263317 -8 3.875 C-3.68652422 2.42199023 -3.68652422 2.42199023 0 0 Z " fill="#DEA07B" transform="translate(146,26)"/>
<path d="M0 0 C0.66 0 1.32 0 2 0 C2.02578125 0.72445312 2.0515625 1.44890625 2.078125 2.1953125 C2.43991461 8.36218083 3.00144165 12.22752713 7 17 C6.01 17 5.02 17 4 17 C0.5246131 11.02667877 -0.57374185 6.88490225 0 0 Z " fill="#D69875" transform="translate(85,62)"/>
<path d="M0 0 C0.99 0.495 0.99 0.495 2 1 C2.37890625 4.0546875 2.37890625 4.0546875 2.5625 7.875 C2.79531842 13.02806026 2.79531842 13.02806026 4 18 C3.01 18 2.02 18 1 18 C-0.2062252 14.38132441 -0.10816918 11.07493749 -0.0625 7.3125 C-0.05798828 6.61060547 -0.05347656 5.90871094 -0.04882812 5.18554688 C-0.03706927 3.45699462 -0.01913454 1.72848635 0 0 Z " fill="#BF7141" transform="translate(121,172)"/>
<path d="M0 0 C0.66 0 1.32 0 2 0 C2.03738281 0.66386719 2.07476562 1.32773438 2.11328125 2.01171875 C2.4985448 7.18633702 2.998513 10.63420073 6 15 C5.67 15.66 5.34 16.32 5 17 C0.6665318 12.6665318 -0.46250116 7.95464398 -1 2 C-0.67 1.34 -0.34 0.68 0 0 Z " fill="#C66E39" transform="translate(53,178)"/>
<path d="M0 0 C0.66 0 1.32 0 2 0 C0.49637741 3.78716158 -1.05487001 7.55245187 -2.625 11.3125 C-3.07101563 12.38113281 -3.51703125 13.44976562 -3.9765625 14.55078125 C-4.31429687 15.35902344 -4.65203125 16.16726562 -5 17 C-5.33 17 -5.66 17 -6 17 C-6 15.35 -6 13.7 -6 12 C-5.34 12 -4.68 12 -4 12 C-4.0825 11.13375 -4.165 10.2675 -4.25 9.375 C-3.94126623 5.20709412 -2.60239421 3.21472226 0 0 Z " fill="#DC9A75" transform="translate(37,128)"/>
<path d="M0 0 C4.81202304 2.0358559 6.95430533 5.28422192 9 10 C9.38745435 12.82219835 9.25571746 15.13596442 9 18 C8.67 18 8.34 18 8 18 C7.79375 16.88625 7.5875 15.7725 7.375 14.625 C6.03790439 9.13897535 3.05390712 4.68649897 0 0 Z " fill="#D79976" transform="translate(77,43)"/>
<path d="M0 0 C4.03812645 3.85408316 3.55257774 8.53043585 3.6875 13.75 C3.72166016 14.63816406 3.75582031 15.52632812 3.79101562 16.44140625 C3.87328714 18.62747803 3.94250172 20.81315951 4 23 C2 21 2 21 1.8046875 17.5234375 C1.81798507 16.14049032 1.84183768 14.75761346 1.875 13.375 C1.88402344 12.66859375 1.89304687 11.9621875 1.90234375 11.234375 C1.92592397 9.48943902 1.96179539 7.74467705 2 6 C1.34 6 0.68 6 0 6 C0 4.02 0 2.04 0 0 Z " fill="#DA9974" transform="translate(79,8)"/>
<path d="M0 0 C0 0.66 0 1.32 0 2 C-1.96875 3.5078125 -1.96875 3.5078125 -4.5 5.125 C-5.3353125 5.66382812 -6.170625 6.20265625 -7.03125 6.7578125 C-7.6809375 7.16773437 -8.330625 7.57765625 -9 8 C-9.33 7.34 -9.66 6.68 -10 6 C-9.34 5.34 -8.68 4.68 -8 4 C-7.38125 3.29875 -6.7625 2.5975 -6.125 1.875 C-4 0 -4 0 0 0 Z " fill="#D9956B" transform="translate(51,119)"/>
<path d="M0 0 C0 0.66 0 1.32 0 2 C-2.05078125 2.22786458 -4.1015625 2.45572917 -6.15234375 2.68359375 C-8.01140229 2.81886614 -8.01140229 2.81886614 -9 4 C-10.66617115 4.04063832 -12.33388095 4.042721 -14 4 C-9.97634192 -0.62720679 -5.89090326 -0.1132866 0 0 Z " fill="#B86D3F" transform="translate(139,83)"/>
<path d="M0 0 C7.41886151 2.80713679 7.41886151 2.80713679 9.1875 6.4375 C10 9 10 9 10 12 C9.34 12 8.68 12 8 12 C7.54625 10.865625 7.0925 9.73125 6.625 8.5625 C5.42904194 4.95278308 5.42904194 4.95278308 3 4 C3 3.34 3 2.68 3 2 C2.01 2 1.02 2 0 2 C0 1.34 0 0.68 0 0 Z " fill="#C16A3E" transform="translate(167,85)"/>
<path d="M0 0 C1.32 0 2.64 0 4 0 C3.67 0.99 3.34 1.98 3 3 C-1.63833893 5.20873282 -5.02952038 4.99409592 -10 4 C-10 3.67 -10 3.34 -10 3 C-9.36191406 2.95101562 -8.72382813 2.90203125 -8.06640625 2.8515625 C-7.24011719 2.77679688 -6.41382813 2.70203125 -5.5625 2.625 C-4.73878906 2.55539063 -3.91507813 2.48578125 -3.06640625 2.4140625 C-2.38449219 2.27742188 -1.70257813 2.14078125 -1 2 C-0.67 1.34 -0.34 0.68 0 0 Z " fill="#BD703D" transform="translate(190,76)"/>
<path d="M0 0 C0.33 0.99 0.66 1.98 1 3 C-2.63423209 5.32590854 -5.77088331 5.16265833 -10 5 C-10 4.34 -10 3.68 -10 3 C-9.04287109 2.80083984 -9.04287109 2.80083984 -8.06640625 2.59765625 C-7.24011719 2.42105469 -6.41382813 2.24445313 -5.5625 2.0625 C-4.73878906 1.88847656 -3.91507813 1.71445313 -3.06640625 1.53515625 C-1.02338796 1.19247006 -1.02338796 1.19247006 0 0 Z " fill="#D89470" transform="translate(35,116)"/>
<path d="M0 0 C0.68359375 1.765625 0.68359375 1.765625 1 4 C-0.21484375 5.921875 -0.21484375 5.921875 -1.9375 7.75 C-2.50339844 8.36359375 -3.06929687 8.9771875 -3.65234375 9.609375 C-4.31943359 10.29773438 -4.31943359 10.29773438 -5 11 C-5.66 10.67 -6.32 10.34 -7 10 C-2.85714286 2.42857143 -2.85714286 2.42857143 0 0 Z " fill="#B96E41" transform="translate(176,103)"/>
<path d="M0 0 C5.08938811 1.59043379 8.87456643 4.7446951 13 8 C12.01 8.495 12.01 8.495 11 9 C8.875 8.0625 8.875 8.0625 7 7 C7 6.34 7 5.68 7 5 C6.401875 4.87625 5.80375 4.7525 5.1875 4.625 C3 4 3 4 0 2 C0 1.34 0 0.68 0 0 Z " fill="#DC9D7F" transform="translate(41,75)"/>
<path d="M0 0 C3 1 3 1 4.25 3.25 C5.07700926 6.28236729 4.85394079 8.01120724 4 11 C3.34 11 2.68 11 2 11 C1.77213542 9.01432292 1.54427083 7.02864583 1.31640625 5.04296875 C1.02829265 2.80603607 1.02829265 2.80603607 0 0 Z " fill="#DE946A" transform="translate(112,28)"/>
<path d="M0 0 C0 0.33 0 0.66 0 1 C-6.52307692 1.36923077 -6.52307692 1.36923077 -8.9375 -0.5 C-9.4634375 -1.2425 -9.4634375 -1.2425 -10 -2 C-5.60166461 -3.38233398 -3.67356722 -2.72893565 0 0 Z " fill="#CB6C37" transform="translate(138,197)"/>
<path d="M0 0 C0.33 0.66 0.66 1.32 1 2 C0.00390625 3.9453125 0.00390625 3.9453125 -1.4375 6.125 C-1.91058594 6.84945312 -2.38367188 7.57390625 -2.87109375 8.3203125 C-3.24363281 8.87460938 -3.61617188 9.42890625 -4 10 C-4.96956854 6.94813661 -5.1635271 6.33484121 -3.6875 3.3125 C-2 1 -2 1 0 0 Z " fill="#B56838" transform="translate(124,87)"/>
<path d="M0 0 C3.33333333 1.66666667 6.66666667 3.33333333 10 5 C10 5.33 10 5.66 10 6 C3.375 5.25 3.375 5.25 0 3 C0 2.01 0 1.02 0 0 Z " fill="#E2A078" transform="translate(8,76)"/>
<path d="M0 0 C0.66 0.33 1.32 0.66 2 1 C0.576875 1.8353125 0.576875 1.8353125 -0.875 2.6875 C-4.08878787 5.06570302 -4.95565118 6.24034426 -6 10 C-6.66 10 -7.32 10 -8 10 C-7.52723148 5.74508335 -5.07452523 3.77457155 -2 1 C-1.34 0.67 -0.68 0.34 0 0 Z " fill="#DD9C78" transform="translate(95,25)"/>
<path d="M0 0 C-0.33 0.99 -0.66 1.98 -1 3 C-1.66 3 -2.32 3 -3 3 C-3.28875 3.969375 -3.5775 4.93875 -3.875 5.9375 C-5 9 -5 9 -7 10 C-6.66666667 8.66666667 -6.33333333 7.33333333 -6 6 C-5.87625 5.29875 -5.7525 4.5975 -5.625 3.875 C-4.67189973 1.01569919 -2.97834568 0 0 0 Z " fill="#E19872" transform="translate(35,86)"/>
<path d="M0 0 C2.6875 0.3125 2.6875 0.3125 5 1 C5 1.99 5 2.98 5 4 C2.36 3.67 -0.28 3.34 -3 3 C-1.8125 1.4375 -1.8125 1.4375 0 0 Z " fill="#B56726" transform="translate(99,172)"/>
<path d="M0 0 C-3.29549466 1.72264494 -6.33118845 3.29445932 -10 4 C-10 3.01 -10 2.02 -10 1 C-3.71428571 -1.42857143 -3.71428571 -1.42857143 0 0 Z " fill="#C26E3A" transform="translate(174,81)"/>
<path d="M0 0 C3.48330216 0.64505596 6.09432866 1.98217268 9 4 C9 4.66 9 5.32 9 6 C5.06326356 4.68775452 2.77280706 3.08089673 0 0 Z " fill="#BA693A" transform="translate(151,117)"/>
<path d="M0 0 C0 0.33 0 0.66 0 1 C-1.11375 1.309375 -2.2275 1.61875 -3.375 1.9375 C-6.7945155 2.82326483 -6.7945155 2.82326483 -9 4 C-9.33 2.68 -9.66 1.36 -10 0 C-6.30581799 -1.231394 -3.7943739 -0.64432764 0 0 Z " fill="#D99770" transform="translate(61,116)"/>
<path d="M0 0 C0.33 0 0.66 0 1 0 C1.3125 2.25 1.3125 2.25 1 5 C-1.5 7.3125 -1.5 7.3125 -4 9 C-2.80100302 5.9168649 -1.52299523 2.93720508 0 0 Z " fill="#CA8142" transform="translate(198,68)"/>
</svg>
